<svg xmlns="http://www.w3.org/2000/svg" xmlns:xlink="http://www.w3.org/1999/xlink" width="285px" height="119px" viewBox="0 0 285 119" version="1.1">
    <title>ht-final</title>
    <g id="Page-1" stroke="none" stroke-width="1" fill="none" fill-rule="evenodd">
        <g id="ht-final" fill="#333333
" fill-rule="nonzero">
            <path d="M19.224,75.9358379 C19.211,74.2868379 19.304,72.6388379 19.503,71.0018379 C18.272,71.0498379 17.099,71.0448379 15.971,71.0018379 C16.381,72.3738379 16.552,74.1038379 16.552,76.8588379 L16.552,80.2418379 L16.382,80.2418379 C14.481,80.2998379 11.378,80.3678379 9.786,80.3678379 C7.831,80.3678379 4.846,80.2998379 3.435,80.2418379 L3.268,80.2418379 L3.268,76.5738379 C3.268,74.1868379 3.356,72.6398379 3.508,70.9818379 C2.922,71.0258379 2.106,71.0258379 1.246,71.0258379 L0,71.0258379 C0.405,72.3738379 0.581,74.0358379 0.581,76.4958379 L0.581,87.0118379 C0.626,88.7238379 0.52,90.4368379 0.264,92.1298379 C0.224,92.3718379 0.191,92.6138379 0.156,92.9038379 C0.611,92.8738379 1.329,92.8498379 2.023,92.8498379 C2.716,92.8498379 3.366,92.8498379 3.811,92.8988379 C3.405,91.5258379 3.234,89.8008379 3.234,87.0458379 L3.234,82.0828379 L3.381,82.0828379 C5.858,82.0148379 7.871,81.9858379 9.731,81.9858379 C11.799,81.9858379 13.851,82.0158379 16.396,82.0828379 L16.566,82.0828379 L16.566,87.0128379 C16.58,88.9828379 16.44,90.9528379 16.146,92.9028379 C17.309,92.8498379 18.716,92.8458379 19.836,92.9028379 C19.425,91.5258379 19.254,89.8008379 19.254,87.0458379 L19.224,75.9358379 Z M30.49,87.6198379 L30.49,81.4798379 L33.416,81.4798379 C34.821,81.4738379 36.226,81.5458379 37.623,81.6968379 C37.827,80.9948379 38.083,80.3098379 38.388,79.6448379 L38.288,79.5548379 C36.847,79.7258379 35.398,79.8118379 33.946,79.8108379 L30.49,79.8108379 L30.49,75.7898379 C30.49,74.3578379 30.56,72.7738379 30.626,71.6578379 L30.626,71.4978379 L30.786,71.4978379 C31.711,71.4368379 32.641,71.3968379 33.212,71.3968379 C35.088,71.3968379 36.984,71.5768379 38.179,72.8798379 L38.364,72.8498379 C38.614,71.8568379 38.934,70.8838379 39.324,69.9388379 C37.604,69.9988379 36.468,70.0288379 34.968,70.0288379 L28.915,70.0288379 C28.56,70.0288379 27.785,70.0288379 27.144,70.0038379 C27.559,71.4118379 27.739,73.1408379 27.739,75.6998379 L27.739,86.6398379 C27.739,88.6918379 27.595,90.7408379 27.304,92.7728379 C28.499,92.7428379 29.765,92.7128379 31.696,92.7128379 C34.267,92.7128379 37.044,92.7778379 39.95,92.9028379 C40.146,91.8008379 40.402,90.7098379 40.715,89.6358379 L40.53,89.5498379 C38.75,91.1438379 36.668,91.2798379 34.527,91.2798379 C31.046,91.2298379 30.49,90.3698379 30.49,87.6198379 L30.49,87.6198379 Z M59.64,86.7078379 C59.182,86.0408379 58.732,85.3748379 58.29,84.7078379 C57.417,83.4248379 56.588,82.2108379 55.681,80.9708379 L55.544,80.7908379 L55.749,80.7008379 C57.802,79.8068379 60.137,78.3378379 60.137,74.8808379 C60.212,73.4228379 59.63,72.0118379 58.557,71.0528379 C57.534,70.2228379 56.339,69.9388379 53.833,69.9388379 C52.546,69.9388379 51.556,69.9688379 50.683,69.9938379 C49.957,70.0188379 49.274,70.0388379 48.543,70.0388379 L46.978,70.0388379 C47.383,71.4328379 47.558,73.1458379 47.558,75.6948379 L47.558,86.5678379 C47.621,88.6038379 47.49,90.6418379 47.168,92.6538379 C48.075,92.6038379 49.923,92.6038379 50.815,92.6538379 C50.405,91.2338379 50.24,89.4508379 50.24,86.6028379 L50.24,75.7948379 C50.24,74.1948379 50.284,73.2958379 50.337,72.2218379 L50.371,71.4078379 L50.518,71.4078379 C51.284,71.2818379 52.058,71.2148379 52.834,71.2078379 C55.647,71.2078379 57.329,72.8318379 57.329,75.5498379 C57.329,79.1728379 54.696,80.4568379 52.453,80.4568379 L51.425,80.4568379 L51.395,80.5668379 C52.531,81.6068379 53.559,82.7668379 54.462,84.0238379 C56.014,86.0478379 57.449,88.1618379 58.762,90.3548379 L60.288,92.9038379 C61.151,92.8188379 62.156,92.7888379 63.311,92.7588379 L64.725,92.7188379 L64.725,92.6688379 C62.955,91.4488379 61.435,89.3358379 59.64,86.7078379 L59.64,86.7078379 Z M87.692,92.8838379 C86.704,91.1498379 85.858,89.3378379 85.164,87.4688379 L79.687,73.1088379 C79.245,72.0918379 78.921,71.0278379 78.72,69.9388379 C77.991,70.0858379 76.861,70.2728379 76.162,70.3418379 C75.848,71.7098379 75.395,73.0428379 74.809,74.3198379 L69.356,87.6098379 C68.619,89.4168379 67.769,91.1758379 66.813,92.8778379 C67.527,92.8478379 68.176,92.8178379 68.796,92.8178379 C69.416,92.8178379 70.03,92.8178379 70.636,92.8728379 C70.539,92.4308379 70.491,91.9808379 70.491,91.5288379 C70.489,90.5638379 70.656,89.6058379 70.987,88.6988379 L72.568,84.3858379 L72.692,84.3858379 C73.956,84.3558379 75.394,84.3218379 76.792,84.3218379 C78.19,84.3218379 79.409,84.3518379 80.757,84.3818379 L81.065,84.3818379 L82.22,87.7238379 C82.833,89.4068379 83.299,91.1398379 83.613,92.9028379 C84.376,92.8428379 84.946,92.8128379 85.759,92.8128379 C86.294,92.8428379 87.068,92.8428379 87.692,92.8828379 L87.692,92.8838379 Z M80.257,82.8758379 C79.102,82.9398379 78.001,82.9398379 76.831,82.9398379 C75.661,82.9398379 74.531,82.9398379 73.411,82.8758379 L73.173,82.8758379 L77.005,72.8478379 L80.475,82.8758379 L80.257,82.8758379 L80.257,82.8758379 Z M106.284,89.5208379 C104.79,91.0328379 102.529,91.2708379 100.308,91.2708379 C96.428,91.2708379 96.239,90.1808379 96.239,86.7338379 L96.239,75.7858379 C96.228,73.8328379 96.321,71.8808379 96.518,69.9388379 C95.786,69.9638379 95.198,69.9638379 94.675,69.9638379 C94.317,69.9638379 93.545,69.9638379 92.912,69.9388379 C93.325,71.3498379 93.5,73.0788379 93.5,75.6488379 L93.5,86.6178379 C93.532,88.6748379 93.4,90.7318379 93.106,92.7678379 C93.903,92.7318379 94.765,92.7068379 95.696,92.7068379 C97.907,92.7068379 102.43,92.7668379 105.692,92.9038379 C105.87,91.7938379 106.134,90.6998379 106.484,89.6318379 L106.284,89.5218379 L106.284,89.5208379 Z M127.818,71.1828379 C125.808,70.0848379 123.088,69.9388379 120.699,69.9388379 C119.665,69.9388379 118.429,69.9638379 117.251,69.9888379 C116.073,70.0138379 114.906,70.0388379 113.935,70.0388379 C112.965,70.0388379 112.176,70.0388379 111.703,70.0138379 C112.113,71.4238379 112.29,73.1568379 112.29,75.7208379 L112.29,86.6818379 C112.35,88.4478379 112.246,90.2158379 111.98,91.9618379 C111.935,92.2438379 111.89,92.5058379 111.851,92.8278379 C112.654,92.7978379 113.481,92.7678379 114.314,92.7678379 C115.344,92.7678379 116.285,92.8028379 117.177,92.8378379 C117.98,92.8728379 118.739,92.9038379 119.497,92.9038379 C127.321,92.9038379 132.582,87.8658379 132.582,80.4208379 C132.533,76.2648379 130.779,72.8148379 127.818,71.1828379 L127.818,71.1828379 Z M119.936,91.2968379 C115.502,91.2968379 115.009,90.8178379 115.009,86.6518379 L115.009,75.8218379 C115.009,74.8898379 115.039,73.9478379 115.069,73.0418379 C115.069,72.6178379 115.093,72.1998379 115.103,71.7868379 L115.103,71.6158379 L116.196,71.5658379 C117.33,71.5058379 118.502,71.4448379 119.675,71.4448379 C122.089,71.4448379 125.094,71.7418379 127.143,74.0688379 C128.621,75.8068379 129.469,78.3608379 129.469,81.2518379 C129.449,87.4478379 125.794,91.2968379 119.916,91.2968379 L119.936,91.2968379 Z M158.383,87.0528379 L158.383,76.6098379 C158.383,75.0358379 158.423,73.7138379 158.518,72.5118379 L158.518,72.3478379 L160.021,72.3478379 C162.425,72.3478379 164.529,72.4678379 166.031,73.8778379 L166.241,73.8778379 C166.438,72.8958379 166.703,71.9288379 167.033,70.9808379 L165.53,71.0208379 C162.826,71.0828379 161.914,71.1068379 160.276,71.1068379 L153.193,71.1068379 C152.272,71.1068379 151.26,71.0828379 150.088,71.0588379 L147.523,71.0098379 L147.198,73.9068379 L147.363,73.9068379 C148.976,72.4588379 151.2,72.3468379 153.163,72.3468379 L155.487,72.3468379 L155.487,72.5168379 C155.553,73.9018379 155.583,75.2098379 155.583,76.5138379 L155.583,87.0178379 C155.63,88.9888379 155.479,90.9588379 155.132,92.9028379 C156.064,92.8488379 157.902,92.8448379 158.909,92.9028379 C158.543,91.4828379 158.383,89.7068379 158.383,87.0518379 L158.383,87.0528379 Z M180.904,69.9388379 C174.077,69.9388379 169.121,75.0538379 169.121,82.1088379 C169.121,89.1618379 173.555,93.9468379 179.913,93.9468379 C186.967,93.9468379 192.088,88.7088379 192.088,81.4968379 C192.088,74.4818379 187.698,69.9388379 180.904,69.9388379 L180.904,69.9388379 Z M180.648,92.4668379 C175.726,92.4668379 172.288,87.9638379 172.288,81.5208379 C172.288,75.4038379 175.571,71.4578379 180.648,71.4578379 C185.517,71.4578379 188.916,75.9718379 188.916,82.4338379 C188.916,88.5208379 185.672,92.4668379 180.648,92.4668379 L180.648,92.4668379 Z M221.595,70.0618379 C221.875,70.8958379 222.012,71.7698379 222,72.6488379 C221.987,73.5598379 221.887,74.4678379 221.704,75.3598379 L218.796,89.6798379 L217.346,85.4768379 L213.426,73.9728379 C212.969,72.6578379 212.618,71.3088379 212.375,69.9388379 C211.955,69.9738379 211.533,69.9868379 211.111,69.9788379 C210.711,69.9878379 210.311,69.9748379 209.911,69.9388379 C209.546,71.5428379 209.076,73.1208379 208.505,74.6638379 L204.522,85.0328379 C204.052,86.2918379 203.678,87.2498379 203.322,88.1528379 L202.74,89.6348379 L202.32,86.7168379 L200.46,74.2048379 C200.226,72.8148379 200.153,71.4038379 200.242,69.9978379 C199.581,70.0478379 198.549,70.0478379 197.631,70.0478379 L196.264,70.0478379 C196.978,72.0918379 197.537,74.1878379 197.937,76.3178379 L200.405,90.4298379 C200.499,90.9238379 200.588,91.5898379 200.681,92.2218379 C200.711,92.4438379 200.741,92.6668379 200.775,92.8838379 C201.096,92.8588379 201.595,92.8288379 202.123,92.8288379 C202.527,92.8288379 202.947,92.8288379 203.367,92.8838379 C203.481,92.0908379 203.707,91.3178379 204.037,90.5878379 L204.147,90.2958379 L209.527,76.6338379 C209.714,76.1398379 209.922,75.5578379 210.124,74.9798379 C210.237,74.6588379 210.346,74.3478379 210.44,74.0908379 L210.627,73.5728379 L210.884,74.4808379 C211.047,75.0688379 211.22,75.6808379 211.457,76.3428379 L216.551,90.5828379 C216.831,91.3338379 217.038,92.1118379 217.168,92.9028379 C217.464,92.8788379 217.928,92.8488379 218.441,92.8488379 C218.954,92.8488379 219.428,92.8788379 219.705,92.8988379 C219.764,92.1418379 219.911,91.3938379 220.144,90.6718379 C220.223,90.3898379 220.297,90.1188379 220.361,89.8518379 L224.014,74.4018379 C224.359,72.8978379 224.854,71.4318379 225.494,70.0268379 C225.001,70.0818379 224.182,70.0818379 223.412,70.0818379 C222.78,70.0818379 222.158,70.0818379 221.595,70.0618379 L221.595,70.0618379 Z M235.116,87.6198379 L235.116,81.4798379 L238.044,81.4798379 C239.448,81.4738379 240.851,81.5458379 242.247,81.6968379 C242.453,80.9948379 242.711,80.3088379 243.017,79.6448379 L242.913,79.5548379 C241.471,79.7258379 240.021,79.8118379 238.569,79.8108379 L235.116,79.8108379 L235.116,75.7898379 C235.116,74.3578379 235.186,72.7738379 235.246,71.6578379 L235.246,71.4978379 L235.406,71.4978379 C236.332,71.4368379 237.263,71.3968379 237.833,71.3968379 C239.705,71.3968379 241.602,71.5768379 242.798,72.8798379 L242.983,72.8498379 C243.232,71.8568379 243.553,70.8838379 243.943,69.9388379 C242.223,69.9988379 241.091,70.0288379 239.585,70.0288379 L233.53,70.0288379 C233.17,70.0288379 232.394,70.0288379 231.758,70.0038379 C232.174,71.4118379 232.354,73.1408379 232.354,75.6998379 L232.354,86.6398379 C232.352,88.6918379 232.207,90.7408379 231.918,92.7728379 C233.109,92.7428379 234.375,92.7128379 236.312,92.7128379 C238.879,92.7128379 241.662,92.7778379 244.569,92.9028379 C244.764,91.8008379 245.017,90.7108379 245.329,89.6358379 L245.149,89.5498379 C243.368,91.1438379 241.281,91.2798379 239.144,91.2798379 C235.667,91.2298379 235.116,90.3698379 235.116,87.6198379 Z M263.194,86.7328379 C262.732,86.0678379 262.284,85.4068379 261.841,84.7308379 C260.969,83.4448379 260.146,82.2288379 259.236,80.9878379 L259.099,80.8078379 L259.309,80.7178379 C261.359,79.8218379 263.691,78.3508379 263.691,74.8878379 C263.766,73.4278379 263.184,72.0148379 262.113,71.0548379 C261.086,70.2238379 259.898,69.9388379 257.39,69.9388379 C256.11,69.9388379 255.117,69.9688379 254.245,69.9938379 C253.525,70.0188379 252.843,70.0388379 252.108,70.0388379 L250.549,70.0388379 C250.954,71.4348379 251.124,73.1508379 251.124,75.7038379 L251.124,86.5928379 C251.187,88.6328379 251.059,90.6738379 250.739,92.6878379 C251.192,92.6628379 251.908,92.6378379 252.594,92.6378379 C253.281,92.6378379 253.938,92.6378379 254.381,92.6878379 C253.972,91.2678379 253.801,89.4808379 253.801,86.6278379 L253.801,75.8038379 C253.801,74.2018379 253.846,73.3018379 253.899,72.2258379 L253.939,71.4098379 L254.084,71.4098379 C254.848,71.2838379 255.619,71.2168379 256.392,71.2098379 C259.206,71.2098379 260.886,72.8358379 260.886,75.5578379 C260.886,79.1868379 258.257,80.4728379 256.017,80.4728379 L254.99,80.4728379 L254.96,80.5828379 C256.103,81.6128379 257.14,82.7618379 258.052,84.0108379 C259.598,86.0408379 261.032,88.1568379 262.347,90.3508379 L263.866,92.9038379 C264.733,92.8178379 265.731,92.7878379 266.885,92.7578379 L268.297,92.7178379 L268.297,92.6678379 C266.505,91.4818379 264.986,89.3648379 263.194,86.7328379 L263.194,86.7328379 Z M279.457,80.0098379 C277.164,78.7618379 274.995,77.5778379 274.995,75.1598379 C274.995,72.9558379 276.628,71.4738379 279.065,71.4738379 C280.749,71.3678379 282.36,72.2038379 283.286,73.6638379 L283.478,73.6298379 C283.706,72.6458379 284.008,71.6828379 284.378,70.7458379 C282.958,70.2158379 281.459,69.9438379 279.95,69.9388379 C275.584,69.9388379 272.65,72.4848379 272.65,76.2798379 C272.65,79.8568379 275.292,81.2738379 277.853,82.6458379 C280.246,83.9438379 282.559,85.1728379 282.559,88.0958379 C282.559,90.5338379 280.567,92.3718379 277.92,92.3718379 C276.124,92.4048379 274.448,91.4378379 273.53,89.8398379 L273.315,89.8848379 C273.088,90.9738379 272.807,92.0508379 272.473,93.1098379 C273.898,93.6748379 275.413,93.9588379 276.939,93.9468379 C281.611,93.9468379 285.000106,90.9348379 285.000106,86.7878379 C285.02,83.0328379 282.204,81.4968379 279.457,80.0108379 L279.457,80.0098379 Z M93.342,116.852838 L86.42,110.648838 L84.56,110.648838 L84.56,118.999838 L86.27,118.999838 L86.27,112.837838 L93.202,118.999838 L95,118.999838 L95,110.648838 L93.342,110.648838 L93.342,116.852838 Z M101.856,115.545838 L109.349,115.545838 L109.349,114.040838 L101.856,114.040838 L101.856,112.199838 L109.522,112.199838 L109.522,110.648838 L100.22,110.648838 L100.22,118.999838 L109.615,118.999838 L109.615,117.438838 L101.856,117.438838 L101.856,115.545838 Z M125.78,117.588838 L123.221,110.648838 L121.212,110.648838 L118.663,117.588838 L115.603,110.648838 L113.791,110.648838 L117.607,118.999838 L119.763,118.999838 L122.214,112.541838 L124.67,118.999838 L126.826,118.999838 L130.495,110.648838 L128.83,110.648838 L125.78,117.588838 Z M148.254,114.963838 L143.99,110.658838 L141.978,110.658838 L147.373,116.300838 L147.373,118.999838 L149.055,118.999838 L149.055,116.290838 L154.505,110.648838 L152.554,110.648838 L148.254,114.963838 Z M167.952,112.077838 C166.896,111.077838 165.42,110.648838 163.362,110.648838 C161.303,110.648838 159.865,111.048838 158.742,112.146838 C158.01,112.815838 157.605,113.793838 157.639,114.809838 C157.614,115.909838 158.096,116.955838 158.934,117.621838 C159.956,118.495838 161.446,118.999838 163.376,118.999838 C165.416,118.999838 167.03,118.544838 168.004,117.556838 C168.747,116.862838 169.154,115.858838 169.117,114.819838 C169.165,113.763838 168.732,112.747838 167.952,112.077838 L167.952,112.077838 Z M166.767,116.477838 C165.998,117.226838 164.928,117.536838 163.362,117.536838 C161.929,117.536838 160.935,117.251838 160.138,116.622838 C159.564,116.226838 159.23,115.546838 159.254,114.829838 C159.237,114.187838 159.497,113.571838 159.961,113.150838 C160.601,112.521838 161.795,112.151838 163.352,112.151838 C164.986,112.151838 165.989,112.501838 166.739,113.151838 C167.224,113.559838 167.492,114.187838 167.459,114.839838 C167.473,115.465838 167.219,116.065838 166.767,116.477838 Z M183.512,114.393838 C183.737,113.976838 183.846,113.497838 183.827,113.013838 C183.851,112.500838 183.7,111.996838 183.403,111.597838 C182.95,111.032838 182.077,110.648838 180.747,110.648838 L174.341,110.648838 L174.341,118.999838 L175.933,118.999838 L175.933,115.612838 L180.285,115.612838 L182.94,118.999838 L184.78,118.999838 L181.958,115.399838 C182.588,115.333838 183.158,114.964838 183.512,114.393838 Z M175.932,114.103838 L175.932,112.168838 L180.7,112.168838 C181.477,112.168838 181.839,112.318838 182.077,112.614838 C182.195,112.756838 182.258,112.942838 182.254,113.133838 C182.254,113.329838 182.199,113.521838 182.096,113.683838 C181.93,113.957838 181.596,114.087838 180.896,114.087838 L175.933,114.103838 L175.932,114.103838 Z M197.912,110.648838 L191.685,114.232838 L191.685,110.648838 L190,110.648838 L190,118.999838 L191.685,118.999838 L191.685,115.887838 L192.831,115.192838 L197.876,118.999838 L200.303,118.999838 L194.299,114.326838 L200.44,110.648838 L197.912,110.648838 Z M121.582,36.5348379 L131.056,36.5348379 C131.466,36.5348379 131.538,36.3988379 131.538,36.0328379 L131.538,7.80983785 C131.538,7.38783785 131.418,7.30783785 131.056,7.30783785 L121.582,7.30783785 C121.177,7.30783785 121.1,7.43283785 121.1,7.80983785 L121.1,36.0438379 C121.086,36.4448379 121.197,36.5408379 121.582,36.5360205 L121.582,36.5348379 Z M128.178,9.34383785 C128.178,9.24683785 128.215,9.15383785 128.281,9.08583785 C128.348,9.01883785 128.437,8.98083785 128.53,8.98283785 L130.082,8.98283785 C130.275,8.98283785 130.432,9.14283785 130.434,9.34283785 L130.434,10.9638379 C130.434,11.1658379 130.277,11.3298379 130.082,11.3298379 L128.53,11.3298379 C128.336,11.3298379 128.178,11.1658379 128.178,10.9638379 L128.178,9.34383785 Z M128.178,12.7048379 C128.178,12.5028379 128.336,12.3388379 128.53,12.3388379 L130.082,12.3388379 C130.277,12.3388379 130.434,12.5028379 130.434,12.7048379 L130.434,14.3248379 C130.432,14.5248379 130.274,14.6868576 130.082,14.6868576 L128.53,14.6868576 C128.437,14.6878379 128.348,14.6508379 128.281,14.5828379 C128.215,14.5148379 128.178,14.4228379 128.178,14.3248379 L128.178,12.7048379 Z M128.178,16.0658379 C128.178,15.8638379 128.336,15.6998379 128.53,15.6998379 L130.082,15.6998379 C130.277,15.6998379 130.434,15.8638379 130.434,16.0658379 L130.434,17.6818379 C130.434,17.8838379 130.277,18.0478379 130.082,18.0478379 L128.53,18.0478379 C128.336,18.0478379 128.178,17.8838379 128.178,17.6818379 L128.178,16.0658379 Z M128.178,19.4278379 C128.176,19.3298379 128.213,19.2358379 128.28,19.1678379 C128.346,19.0978379 128.436,19.0598379 128.53,19.0608186 L130.082,19.0608186 C130.277,19.0608186 130.434,19.2248379 130.434,19.4278379 L130.434,21.0578379 C130.434,21.2598379 130.277,21.4238379 130.082,21.4238379 L128.53,21.4238379 C128.336,21.4238379 128.178,21.2598379 128.178,21.0578379 L128.178,19.4278379 Z M128.178,22.7838379 C128.178,22.6868379 128.215,22.5938379 128.281,22.5258379 C128.348,22.4588379 128.437,22.4208379 128.53,22.4228379 L130.082,22.4228379 C130.275,22.4228379 130.432,22.5828379 130.434,22.7828379 L130.434,24.4038379 C130.434,24.6058379 130.277,24.7698379 130.082,24.7698379 L128.53,24.7698379 C128.336,24.7698379 128.178,24.6058379 128.178,24.4038379 L128.178,22.7838379 L128.178,22.7838379 Z M128.178,26.1448379 C128.178,25.9428379 128.336,25.7788379 128.53,25.7788379 L130.082,25.7788379 C130.277,25.7788379 130.434,25.9428379 130.434,26.1448379 L130.434,27.7648379 C130.432,27.9648379 130.274,28.1268576 130.082,28.1268576 L128.53,28.1268576 C128.437,28.1278379 128.348,28.0908379 128.281,28.0228379 C128.215,27.9548379 128.178,27.8628379 128.178,27.7648379 L128.178,26.1448379 Z M128.178,29.5058379 C128.178,29.3038379 128.336,29.1398379 128.53,29.1398379 L130.082,29.1398379 C130.277,29.1398379 130.434,29.3038379 130.434,29.5058379 L130.434,31.1218379 C130.434,31.3238379 130.277,31.4878571 130.082,31.4878571 L128.53,31.4878571 C128.436,31.4888379 128.346,31.4508379 128.28,31.3818379 C128.213,31.3128379 128.176,31.2188379 128.178,31.1218379 L128.178,29.5058379 L128.178,29.5058379 Z M128.178,32.8668379 C128.176,32.7698379 128.213,32.6758379 128.28,32.6068379 C128.346,32.5368379 128.436,32.4998379 128.53,32.5008181 L130.082,32.5008181 C130.277,32.5008181 130.434,32.6648379 130.434,32.8668379 L130.434,34.4828379 C130.434,34.6848379 130.277,34.8488379 130.082,34.8488379 L128.53,34.8488379 C128.336,34.8488379 128.178,34.6848379 128.178,34.4828379 L128.178,32.8668379 Z M125.184,9.34383785 C125.186,9.14383785 125.344,8.98283785 125.536,8.98283785 L127.093,8.98283785 C127.285,8.98283785 127.44,9.14383785 127.44,9.34283785 L127.44,10.9638379 C127.44,11.1638379 127.286,11.3278379 127.093,11.3298379 L125.536,11.3298379 C125.342,11.3298379 125.184,11.1658379 125.184,10.9638379 L125.184,9.34383785 Z M125.184,12.7048379 C125.184,12.5028379 125.342,12.3388379 125.536,12.3388379 L127.093,12.3388379 C127.286,12.3408379 127.44,12.5048379 127.44,12.7048379 L127.44,14.3248379 C127.44,14.5248379 127.285,14.6868379 127.093,14.6868379 L125.536,14.6868379 C125.343,14.6868379 125.186,14.5258379 125.184,14.3248379 L125.184,12.7048379 Z M125.184,16.0658379 C125.184,15.8638379 125.342,15.6998379 125.536,15.6998379 L127.093,15.6998379 C127.286,15.7028379 127.44,15.8658379 127.44,16.0658379 L127.44,17.6818379 C127.44,17.8818379 127.286,18.0448379 127.093,18.0478379 L125.536,18.0478379 C125.342,18.0478379 125.184,17.8838379 125.184,17.6818379 L125.184,16.0658379 Z M125.184,19.4278379 C125.184,19.2248379 125.342,19.0608379 125.536,19.0608379 L127.093,19.0608379 C127.186,19.0608379 127.275,19.0998379 127.34,19.1688379 C127.406,19.2378379 127.442,19.3308379 127.44,19.4278379 L127.44,21.0578379 C127.44,21.2578379 127.286,21.4218379 127.093,21.4238379 L125.536,21.4238379 C125.342,21.4238379 125.184,21.2598379 125.184,21.0578379 L125.184,19.4278379 Z M125.184,22.7838379 C125.186,22.5838379 125.344,22.4228379 125.536,22.4228379 L127.093,22.4228379 C127.285,22.4228379 127.44,22.5838379 127.44,22.7828379 L127.44,24.4038379 C127.44,24.6038379 127.286,24.7678379 127.093,24.7698379 L125.536,24.7698379 C125.342,24.7698379 125.184,24.6058379 125.184,24.4038379 L125.184,22.7838379 L125.184,22.7838379 Z M125.184,26.1448379 C125.184,25.9428379 125.342,25.7788379 125.536,25.7788379 L127.093,25.7788379 C127.286,25.7808379 127.44,25.9448379 127.44,26.1448379 L127.44,27.7648379 C127.44,27.9648379 127.285,28.1268379 127.093,28.1268379 L125.536,28.1268379 C125.343,28.1268379 125.186,27.9658379 125.184,27.7648379 L125.184,26.1448379 Z M125.184,29.5058379 C125.184,29.3038379 125.342,29.1398379 125.536,29.1398379 L127.093,29.1398379 C127.286,29.1428379 127.44,29.3058379 127.44,29.5058379 L127.44,31.1218379 C127.442,31.2178379 127.406,31.3118379 127.34,31.3798379 C127.275,31.4498379 127.186,31.4878379 127.093,31.4878379 L125.536,31.4878379 C125.342,31.4878379 125.184,31.3238379 125.184,31.1218379 L125.184,29.5058379 Z M125.184,32.8668379 C125.184,32.6648379 125.342,32.5008379 125.536,32.5008379 L127.093,32.5008379 C127.186,32.5008379 127.275,32.5398379 127.34,32.6088379 C127.406,32.6778379 127.442,32.7708379 127.44,32.8668379 L127.44,34.4828379 C127.44,34.6828379 127.286,34.8468379 127.093,34.8488379 L125.536,34.8488379 C125.342,34.8488379 125.184,34.6848379 125.184,34.4828379 L125.184,32.8668379 Z M122.194,9.34383785 C122.197,9.14383785 122.354,8.98283785 122.547,8.98283785 L124.099,8.98283785 C124.192,8.98083785 124.281,9.01883785 124.348,9.08583785 C124.414,9.15483785 124.451,9.24683785 124.451,9.34383785 L124.451,10.9638379 C124.451,11.1658379 124.293,11.3298379 124.099,11.3298379 L122.547,11.3298379 C122.352,11.3298379 122.195,11.1658379 122.195,10.9638379 L122.195,9.34383785 L122.194,9.34383785 Z M122.194,12.7048379 C122.194,12.5028379 122.352,12.3388379 122.547,12.3388379 L124.099,12.3388379 C124.293,12.3388379 124.451,12.5028379 124.451,12.7048379 L124.451,14.3248379 C124.451,14.4218379 124.414,14.5148379 124.348,14.5828379 C124.281,14.6508379 124.192,14.6878379 124.099,14.6868576 L122.547,14.6868576 C122.354,14.6868576 122.197,14.5258379 122.195,14.3248379 L122.195,12.7048379 L122.194,12.7048379 Z M122.194,16.0658379 C122.194,15.8638379 122.352,15.6998379 122.547,15.6998379 L124.099,15.6998379 C124.293,15.6998379 124.451,15.8638379 124.451,16.0658379 L124.451,17.6818379 C124.451,17.8838379 124.293,18.0478379 124.099,18.0478379 L122.547,18.0478379 C122.352,18.0478379 122.195,17.8838379 122.195,17.6818379 L122.195,16.0658379 L122.194,16.0658379 Z M122.194,19.4278379 C122.194,19.2248379 122.352,19.0608186 122.547,19.0608186 L124.099,19.0608186 C124.193,19.0598379 124.283,19.0978379 124.349,19.1668379 C124.416,19.2358379 124.452,19.3298379 124.45102,19.4268379 L124.45102,21.0578379 C124.45102,21.2598379 124.293,21.4238379 124.099,21.4238379 L122.547,21.4238379 C122.352,21.4238379 122.195,21.2598379 122.195,21.0578379 L122.195,19.4278379 L122.194,19.4278379 Z M122.194,22.7838379 C122.197,22.5838379 122.354,22.4228379 122.547,22.4228379 L124.099,22.4228379 C124.192,22.4208379 124.281,22.4588379 124.348,22.5258379 C124.414,22.5948379 124.451,22.6858379 124.451,22.7838379 L124.451,24.4038379 C124.451,24.6058379 124.293,24.7698379 124.099,24.7698379 L122.547,24.7698379 C122.352,24.7698379 122.195,24.6058379 122.195,24.4038379 L122.195,22.7838379 L122.194,22.7838379 Z M122.194,26.1448379 C122.194,25.9428379 122.352,25.7788379 122.547,25.7788379 L124.099,25.7788379 C124.293,25.7788379 124.451,25.9428379 124.451,26.1448379 L124.451,27.7648379 C124.451,27.8618379 124.414,27.9548379 124.348,28.0228379 C124.281,28.0908379 124.192,28.1278379 124.099,28.1268576 L122.547,28.1268576 C122.354,28.1268576 122.197,27.9658379 122.195,27.7648379 L122.195,26.1448379 L122.194,26.1448379 Z M122.194,29.5058379 C122.194,29.3038379 122.352,29.1398379 122.547,29.1398379 L124.099,29.1398379 C124.293,29.1398379 124.45102,29.3038379 124.45102,29.5058379 L124.45102,31.1218379 C124.452,31.2188379 124.416,31.3128379 124.349,31.3818379 C124.283,31.4518379 124.193,31.4888379 124.099,31.4878576 L122.547,31.4878576 C122.352,31.4878576 122.195,31.3238379 122.195,31.1218379 L122.195,29.5058379 L122.194,29.5058379 Z M122.194,32.8668379 C122.194,32.6648379 122.352,32.5008186 122.547,32.5008186 L124.099,32.5008186 C124.193,32.4998379 124.283,32.5378379 124.349,32.6068379 C124.416,32.6758379 124.452,32.7698379 124.45102,32.8668379 L124.45102,34.4828379 C124.45102,34.6848379 124.293,34.8488379 124.099,34.8488379 L122.547,34.8488379 C122.352,34.8488379 122.195,34.6848379 122.195,34.4828379 L122.195,32.8668379 L122.194,32.8668379 Z M131.529,39.0868379 C131.529,38.6868379 131.409,38.6228379 131.049,38.6228379 L121.579,38.6228379 C121.224,38.6228379 121.099,38.6968379 121.099,39.1158379 L121.099,46.5188379 C121.099,46.9338379 121.238,46.9788379 121.579,46.9728379 L131.059,46.9728379 C131.404,46.9728379 131.539,46.9188379 131.539,46.5138379 C131.513,44.0338379 131.509,41.5578379 131.529,39.0868379 Z M124.555,41.2428379 L124.555,45.4628379 L122.441,45.4628379 L122.441,41.1998379 C122.441,40.5968379 122.915,40.1098379 123.501,40.1098379 C124.086,40.1098379 124.56,40.5968379 124.56,41.1998379 C124.56,41.8028379 124.555,41.2298379 124.555,41.2438379 L124.555,41.2428379 Z M127.373,41.2428379 L127.373,45.4628379 L125.259,45.4628379 L125.259,41.1998379 C125.259,40.5968379 125.733,40.1098379 126.319,40.1098379 C126.904,40.1098379 127.378,40.5968379 127.378,41.1998379 C127.378,41.2148379 127.377,41.2298379 127.373,41.2438379 L127.373,41.2428379 Z M130.196,41.2428379 L130.196,45.4628379 L128.083,45.4628379 L128.083,41.1998379 C128.083,40.5968379 128.557,40.1098379 129.142,40.1098379 C129.727,40.1098379 130.202,40.5968379 130.202,41.1998379 C130.202,41.8028379 130.206,41.2298379 130.206,41.2438379 L130.196,41.2438379 L130.196,41.2428379 Z M121.324,0.0158378518 C121.268,0.0208378518 121.212,0.0208378518 121.156,0.0158378518 C121.108,0.129837852 121.09,0.254837852 121.103,0.378837852 C121.127,1.97883785 121.103,3.57883785 121.103,5.17883785 C121.103,6.24883785 121.103,6.22883785 122.122,6.24283785 C122.487,6.24283785 122.554,6.11883785 122.549,5.77583785 L122.549,2.25183785 C122.549,1.62183785 122.804,1.28783785 123.259,1.28283785 C123.716,1.27783785 123.985,1.63583785 123.985,2.23683785 L123.985,5.81583785 C123.985,6.21283785 124.129,6.26283785 124.442,6.23783785 C124.754,6.21283785 124.984,6.29783785 124.975,5.82083785 C124.941,4.52883785 124.975,3.23083785 124.975,1.93383785 C124.951,1.56383785 125.075,1.20083785 125.319,0.928837852 C125.563,0.656837852 125.904,0.500837852 126.262,0.497837852 C126.632,0.501837852 126.983,0.664837852 127.232,0.947837852 C127.482,1.22983785 127.607,1.60783785 127.578,1.98783785 C127.578,3.26583785 127.602,4.54783785 127.578,5.82583785 C127.578,6.27783785 127.785,6.25283785 128.082,6.25783785 C128.38,6.26283785 128.562,6.25783785 128.562,5.81083785 C128.529,4.60283785 128.562,3.39083785 128.562,2.18283785 C128.562,1.65083785 128.837,1.31783785 129.259,1.30283785 C129.682,1.28783785 129.97,1.61083785 129.975,2.19783785 L129.975,5.10983785 C129.975,6.27283785 129.975,6.25783785 131.118,6.26283785 C131.435,6.26283785 131.541,6.18883785 131.536,5.84083785 L131.536,0.318837852 C131.544,0.223837852 131.531,0.128837852 131.498,0.0408378518 L131.104,0.0408378518 C127.828,0.000837851757 124.576,-0.0141621482 121.324,0.0158378518 L121.324,0.0158378518 Z" id="Shape"/>
            <path d="M121.503,51.1488379 L131.106,51.1488379 C131.461,51.1488379 131.543,51.0398379 131.538,50.6888379 L131.538,47.3788379 C131.538,47.0678379 131.447,46.9738379 131.145,46.9738379 L121.513,46.9738379 C121.172,46.9738379 121.1,47.0878379 121.105,47.4138379 L121.105,50.7228379 C121.071,51.0698379 121.182,51.1528379 121.503,51.1488379 L121.503,51.1488379 Z M131.13,36.5348379 L121.584,36.5348379 C121.257,36.5348379 121.131,36.5978379 121.102,37.0348379 C121.073,37.4708379 121.232,37.6078379 121.584,37.5738379 L131.082,37.5738379 C131.414,37.5738379 131.564,37.4938379 131.535,37.0638379 C131.506,36.6328379 131.487,36.5298379 131.13,36.5348379 Z M121.607,7.30683785 L131.083,7.30683785 C131.415,7.30683785 131.563,7.22683785 131.535,6.79383785 C131.506,6.36083785 131.463,6.25783785 131.107,6.26383785 L121.583,6.26383785 C121.256,6.26383785 121.131,6.32683785 121.102,6.76383785 C121.073,7.20283785 121.256,7.31283785 121.607,7.30683785 Z M147.198,7.80883785 C147.198,7.38683785 147.072,7.30683785 146.716,7.30683785 L137.24,7.30683785 C136.835,7.30683785 136.758,7.43183785 136.758,7.80883785 L136.758,36.0338379 C136.758,36.4498379 136.869,36.5348379 137.24,36.5348379 L146.716,36.5348379 C147.126,36.5348379 147.198,36.3998379 147.198,36.0338379 C147.188,26.6188379 147.188,17.2098379 147.198,7.80883785 Z M140.11,34.4888379 C140.11,34.6908379 139.952,34.8548379 139.758,34.8548379 L138.205,34.8548379 C138.011,34.8548379 137.853,34.6908379 137.853,34.4888379 L137.853,32.8738379 C137.851,32.7768379 137.888,32.6818379 137.955,32.6138379 C138.021,32.5438379 138.111,32.5058379 138.205,32.5078379 L139.758,32.5078379 C139.952,32.5078379 140.11,32.6718379 140.11,32.8738379 L140.11,34.4888379 Z M140.11,31.1288379 C140.11,31.3308379 139.952,31.4948571 139.758,31.4948571 L138.205,31.4948571 C138.111,31.4958379 138.021,31.4578379 137.955,31.3888379 C137.888,31.3198379 137.851,31.2258379 137.853,31.1288379 L137.853,29.5138379 C137.853,29.3118379 138.011,29.1478379 138.205,29.1478379 L139.758,29.1478379 C139.952,29.1478379 140.11,29.3118379 140.11,29.5138379 L140.11,31.1288379 L140.11,31.1288379 Z M140.11,27.7738379 C140.107,27.9738379 139.95,28.1338379 139.758,28.1338379 L138.205,28.1338379 C138.112,28.1358379 138.023,28.0988379 137.956,28.0308379 C137.89,27.9628379 137.853,27.8708379 137.853,27.7738379 L137.853,26.1538379 C137.853,25.9518379 138.011,25.7878379 138.205,25.7878379 L139.758,25.7878379 C139.952,25.7878379 140.11,25.9518379 140.11,26.1538379 L140.11,27.7738379 L140.11,27.7738379 Z M140.11,24.4138379 C140.11,24.6158379 139.952,24.7798379 139.758,24.7798379 L138.205,24.7798379 C138.011,24.7798379 137.853,24.6158379 137.853,24.4138379 L137.853,22.7938379 C137.853,22.6968379 137.89,22.6038379 137.956,22.5358379 C138.023,22.4688379 138.112,22.4308379 138.205,22.4328379 L139.758,22.4328379 C139.95,22.4328379 140.108,22.5928379 140.11,22.7928379 L140.11,24.4128379 L140.11,24.4138379 Z M140.11,21.0538379 C140.11,21.2558379 139.952,21.4198379 139.758,21.4198379 L138.205,21.4198379 C138.011,21.4198379 137.853,21.2558379 137.853,21.0528379 L137.853,19.4398379 C137.851,19.3418379 137.888,19.2478379 137.955,19.1798379 C138.021,19.1098379 138.111,19.0718379 138.205,19.0728186 L139.758,19.0728186 C139.952,19.0728186 140.11,19.2368379 140.11,19.4398379 L140.11,21.0538379 L140.11,21.0538379 Z M140.11,17.6938379 C140.11,17.8948379 139.952,18.0588379 139.758,18.0588379 L138.205,18.0588379 C138.011,18.0588379 137.853,17.8948379 137.853,17.6928379 L137.853,16.0778379 C137.853,15.8758379 138.011,15.7118379 138.205,15.7118379 L139.758,15.7118379 C139.952,15.7118379 140.11,15.8758379 140.11,16.0778379 L140.11,17.6928379 L140.11,17.6938379 Z M140.11,14.3378379 C140.107,14.5378379 139.95,14.6988379 139.758,14.6988379 L138.205,14.6988379 C138.112,14.7008379 138.023,14.6628379 137.956,14.5948379 C137.89,14.5268379 137.853,14.4348379 137.853,14.3378379 L137.853,12.7178379 C137.853,12.5158379 138.011,12.3518379 138.205,12.3518379 L139.758,12.3518379 C139.952,12.3518379 140.11,12.5158379 140.11,12.7178379 L140.11,14.3378379 L140.11,14.3378379 Z M140.11,10.9778379 C140.11,11.1798379 139.952,11.3438379 139.758,11.3438379 L138.205,11.3438379 C138.011,11.3438379 137.853,11.1798379 137.853,10.9778379 L137.853,9.35783785 C137.853,9.26083785 137.89,9.16883785 137.956,9.10083785 C138.023,9.03283785 138.112,8.99583785 138.205,8.9968181 L139.758,8.9968181 C139.95,8.9968181 140.108,9.15783785 140.11,9.35783785 L140.11,10.9778379 L140.11,10.9778379 Z M143.1,34.4878379 C143.1,34.6908379 142.941,34.8548379 142.747,34.8548379 L141.194,34.8548379 C141,34.8548379 140.842,34.6908379 140.842,34.4888379 L140.842,32.8738379 C140.842,32.6718379 141,32.5078379 141.194,32.5078379 L142.747,32.5078379 C142.941,32.5078379 143.099,32.6718379 143.099,32.8738379 L143.099,34.4888379 L143.1,34.4878379 Z M143.1,31.1278379 C143.1,31.3308379 142.941,31.4948379 142.747,31.4948379 L141.194,31.4948379 C141,31.4948379 140.842,31.3308379 140.842,31.1288379 L140.842,29.5138379 C140.842,29.3118379 141,29.1478379 141.194,29.1478379 L142.747,29.1478379 C142.941,29.1478379 143.099,29.3118379 143.099,29.5138379 L143.099,31.1288379 L143.1,31.1278379 Z M143.1,27.7738379 C143.097,27.9738379 142.94,28.1338379 142.747,28.1338379 L141.194,28.1338379 C141.002,28.1338379 140.844,27.9738379 140.842,27.7738379 L140.842,26.1538379 C140.842,25.9518379 141,25.7878379 141.194,25.7878379 L142.747,25.7878379 C142.941,25.7878379 143.099,25.9518379 143.099,26.1538379 L143.099,27.7738379 L143.1,27.7738379 Z M143.1,24.4138379 C143.1,24.6158379 142.941,24.7798379 142.747,24.7798379 L141.194,24.7798379 C141,24.7798379 140.842,24.6158379 140.842,24.4138379 L140.842,22.7938379 C140.845,22.5938379 141.002,22.4328379 141.194,22.4328379 L142.747,22.4328379 C142.94,22.4328379 143.097,22.5928379 143.099,22.7928379 L143.099,24.4128379 L143.1,24.4138379 Z M143.1,21.0538379 C143.1,21.2558379 142.941,21.4198379 142.747,21.4198379 L141.194,21.4198379 C141.011,21.4118379 140.864,21.2598379 140.857,21.0678379 L140.857,19.4378379 C140.857,19.2358379 141.015,19.0718379 141.209,19.0718379 L142.762,19.0718379 C142.956,19.0718379 143.114,19.2358379 143.114,19.4388379 L143.099,21.0528379 L143.1,21.0538379 Z M143.1,17.6938379 C143.1,17.8948379 142.941,18.0588379 142.747,18.0588379 L141.194,18.0588379 C141,18.0588379 140.842,17.8948379 140.842,17.6928379 L140.842,16.0778379 C140.842,15.8758379 141,15.7118379 141.194,15.7118379 L142.747,15.7118379 C142.941,15.7118379 143.099,15.8758379 143.099,16.0778379 L143.099,17.6928379 L143.1,17.6938379 Z M143.1,14.3378379 C143.097,14.5378379 142.94,14.6988379 142.747,14.6988379 L141.194,14.6988379 C141.002,14.6988379 140.844,14.5388379 140.842,14.3388379 L140.842,12.7188379 C140.842,12.5158379 141,12.3518379 141.194,12.3518379 L142.747,12.3518379 C142.941,12.3518379 143.099,12.5158379 143.099,12.7178379 L143.099,14.3378379 L143.1,14.3378379 Z M143.1,10.9778379 C143.1,11.1798379 142.941,11.3438379 142.747,11.3438379 L141.194,11.3438379 C141,11.3438379 140.842,11.1798379 140.842,10.9778379 L140.842,9.35783785 C140.845,9.15783785 141.002,8.99783785 141.194,8.99783785 L142.747,8.99783785 C142.94,8.99783785 143.097,9.15783785 143.099,9.35783785 L143.099,10.9778379 L143.1,10.9778379 Z M146.08902,34.4878379 C146.08902,34.6888379 145.934,34.8528379 145.742,34.8548379 L144.184,34.8548379 C143.99,34.8548379 143.832,34.6908379 143.832,34.4888379 L143.832,32.8738379 C143.832,32.6718379 143.99,32.5078379 144.184,32.5078379 L145.742,32.5078379 C145.835,32.5078379 145.923,32.5468379 145.989,32.6148379 C146.054,32.6848379 146.09,32.7768379 146.08902,32.8748379 L146.08902,34.4888379 L146.08902,34.4878379 Z M146.08902,31.1278379 C146.09,31.2258379 146.054,31.3178379 145.989,31.3878379 C145.923,31.4558379 145.835,31.4948379 145.742,31.4948379 L144.184,31.4948379 C143.99,31.4948379 143.832,31.3308379 143.832,31.1288379 L143.832,29.5138379 C143.832,29.3118379 143.99,29.1478379 144.184,29.1478379 L145.742,29.1478379 C145.934,29.1498379 146.08902,29.3138379 146.08902,29.5138379 L146.08902,31.1288379 L146.08902,31.1278379 Z M146.089,27.7738379 C146.089,27.9738379 145.933,28.1338379 145.742,28.1338379 L144.184,28.1338379 C143.992,28.1338379 143.834,27.9738379 143.832,27.7738379 L143.832,26.1538379 C143.832,25.9518379 143.99,25.7878379 144.184,25.7878379 L145.742,25.7878379 C145.934,25.7898379 146.089,25.9538379 146.089,26.1538379 L146.089,27.7738379 Z M146.089,24.4138379 C146.089,24.6138379 145.934,24.7768379 145.742,24.7798379 L144.184,24.7798379 C143.99,24.7798379 143.832,24.6158379 143.832,24.4138379 L143.832,22.7938379 C143.834,22.5938379 143.992,22.4328379 144.184,22.4328379 L145.742,22.4328379 C145.933,22.4328379 146.089,22.5938379 146.089,22.7928379 L146.089,24.4128379 L146.089,24.4138379 Z M146.08902,21.0538379 C146.08902,21.2538379 145.934,21.4168379 145.742,21.4198379 L144.184,21.4198379 C143.99,21.4198379 143.832,21.2558379 143.832,21.0528379 L143.832,19.4398379 C143.832,19.2368379 143.99,19.0728379 144.184,19.0728379 L145.742,19.0728379 C145.835,19.0728379 145.923,19.1128379 145.989,19.1808379 C146.054,19.2498379 146.09,19.3428379 146.08902,19.4398379 L146.08902,21.0538379 L146.08902,21.0538379 Z M146.089,17.6938379 C146.089,17.8938379 145.934,18.0568379 145.742,18.0588379 L144.184,18.0588379 C143.99,18.0588379 143.832,17.8948379 143.832,17.6928379 L143.832,16.0778379 C143.832,15.8758379 143.99,15.7118379 144.184,15.7118379 L145.742,15.7118379 C145.934,15.7148379 146.089,15.8778379 146.089,16.0778379 L146.089,17.6928379 L146.089,17.6938379 Z M146.089,14.3378379 C146.089,14.5378379 145.933,14.6988379 145.742,14.6988379 L144.184,14.6988379 C143.992,14.6988379 143.834,14.5388379 143.832,14.3388379 L143.832,12.7188379 C143.832,12.5158379 143.99,12.3518379 144.184,12.3518379 L145.742,12.3518379 C145.934,12.3548379 146.089,12.5178379 146.089,12.7178379 L146.089,14.3378379 L146.089,14.3378379 Z M146.089,10.9778379 C146.089,11.1778379 145.934,11.3418379 145.742,11.3438379 L144.184,11.3438379 C143.99,11.3438379 143.832,11.1798379 143.832,10.9778379 L143.832,9.35783785 C143.834,9.15783785 143.992,8.99783785 144.184,8.99783785 L145.742,8.99783785 C145.933,8.99783785 146.089,9.15783785 146.089,9.35783785 L146.089,10.9778379 L146.089,10.9778379 Z M137.234,46.9728379 L146.718,46.9728379 C147.068,46.9728379 147.198,46.9188379 147.198,46.5128379 C147.178,44.0348379 147.178,41.5598379 147.198,39.0878379 C147.198,38.6878379 147.073,38.6228379 146.718,38.6228379 L137.238,38.6228379 C136.878,38.6228379 136.758,38.6968379 136.758,39.1178379 C136.758,41.5928379 136.783,44.0678379 136.758,46.5428379 C136.749,46.9328379 136.893,46.9778379 137.234,46.9728379 L137.234,46.9728379 Z M143.739,41.2018379 C143.739,40.5968379 144.213,40.1078379 144.799,40.1078379 C145.385,40.1078379 145.859,40.5978379 145.859,41.2018379 L145.859,45.4778379 L143.739,45.4778379 L143.739,41.2018379 Z M140.918,41.2018379 C140.918,40.5968379 141.392,40.1078379 141.978,40.1078379 C142.564,40.1078379 143.038,40.5978379 143.038,41.2018379 L143.038,45.4778379 L140.908,45.4778379 L140.918,41.2018379 Z M138.098,41.2018379 C138.098,40.5968379 138.572,40.1078379 139.158,40.1078379 C139.743,40.1078379 140.218,40.5978379 140.218,41.2018379 L140.218,45.4778379 L138.102,45.4778379 L138.097,41.2018379 L138.098,41.2018379 Z M136.986,0.0158378518 C136.931,0.0218378518 136.874,0.0218378518 136.818,0.0158378518 C136.771,0.129837852 136.751,0.254837852 136.761,0.378837852 C136.789,1.97883785 136.761,3.57883785 136.761,5.17883785 C136.761,6.24883785 136.761,6.22883785 137.783,6.24283785 C138.148,6.24283785 138.215,6.11883785 138.21,5.77583785 L138.21,2.25183785 C138.21,1.62183785 138.47,1.28783785 138.92,1.28283785 C139.372,1.27783785 139.646,1.63583785 139.65,2.23683785 L139.65,5.81583785 C139.65,6.21283785 139.795,6.26283785 140.107,6.23783785 C140.419,6.21283785 140.649,6.29783785 140.635,5.82083785 C140.605,4.52883785 140.635,3.23083785 140.635,1.93383785 C140.612,1.56383785 140.738,1.19983785 140.982,0.928837852 C141.226,0.656837852 141.567,0.500837852 141.926,0.497837852 C142.296,0.501837852 142.647,0.664837852 142.896,0.947837852 C143.146,1.22983785 143.271,1.60783785 143.241,1.98783785 C143.241,3.26583785 143.265,4.54783785 143.241,5.82583785 C143.241,6.27783785 143.453,6.25283785 143.751,6.25783785 C144.048,6.26283785 144.254,6.25783785 144.231,5.81083785 C144.197,4.60283785 144.231,3.39083785 144.231,2.18283785 C144.231,1.65083785 144.504,1.31783785 144.921,1.30283785 C145.339,1.28783785 145.637,1.61083785 145.637,2.19783785 L145.637,5.10983785 C145.637,6.27283785 145.637,6.25783785 146.779,6.26283785 C147.096,6.26283785 147.202,6.18883785 147.197,5.84083785 C147.177,4.00083785 147.177,2.16083785 147.197,0.318837852 C147.202,0.223837852 147.187,0.128837852 147.154,0.0408378518 L146.764,0.0408378518 C143.486,0.000837851757 140.236,-0.0141621482 136.986,0.0158378518 L136.986,0.0158378518 Z" id="Shape"/>
            <path d="M146.765,51.1498379 C147.115,51.1498379 147.202,51.0398379 147.198,50.6878379 C147.174,49.5838379 147.198,48.4838379 147.198,47.3798379 C147.198,47.0678379 147.111,46.9738379 146.808,46.9738379 L137.167,46.9738379 C136.826,46.9738379 136.754,47.0878379 136.758,47.4138379 L136.758,50.7238379 C136.758,51.0638379 136.855,51.1488379 137.177,51.1438379 L141.983,51.1438379 C143.593,51.1438379 145.189,51.1288379 146.765,51.1488379 L146.765,51.1498379 Z M146.764,36.5348379 L137.212,36.5348379 C136.884,36.5348379 136.763,36.5978379 136.757913,37.0348379 C136.754,37.4708379 136.888,37.6078379 137.241,37.5738379 L146.744,37.5738379 C147.077,37.5738379 147.202,37.4938379 147.198093,37.0638379 C147.193,36.6328379 147.135,36.5298379 146.764,36.5348379 L146.764,36.5348379 Z M137.24,7.30683785 L146.744,7.30683785 C147.077,7.30683785 147.202,7.22683785 147.198093,6.79383785 C147.193,6.36083785 147.125,6.25783785 146.764,6.26383785 L137.212,6.26383785 C136.884,6.26383785 136.763,6.32683785 136.757913,6.76383785 C136.754,7.20283785 136.888,7.31283785 137.241,7.30683785 L137.24,7.30683785 Z M153.944,36.5348379 L163.419,36.5348379 C163.824,36.5348379 163.901,36.3988379 163.901,36.0328379 L163.901,7.80983785 C163.901,7.38783785 163.776,7.30783785 163.419,7.30783785 L153.944,7.30783785 C153.539,7.30783785 153.462,7.43283785 153.462,7.80983785 L153.462,36.0438379 C153.452,36.4448379 153.563,36.5408379 153.944,36.5360205 L153.944,36.5348379 Z M160.537,9.34383785 C160.54,9.14383785 160.697,8.98283785 160.889,8.98283785 L162.441,8.98283785 C162.633,8.98283785 162.791,9.14283785 162.793,9.34283785 L162.793,10.9638379 C162.793,11.1658379 162.635,11.3298379 162.441,11.3298379 L160.889,11.3298379 C160.695,11.3298379 160.537,11.1658379 160.537,10.9638379 L160.537,9.34383785 Z M160.537,12.7048379 C160.537,12.5028379 160.695,12.3388379 160.889,12.3388379 L162.441,12.3388379 C162.635,12.3388379 162.793,12.5028379 162.793,12.7048379 L162.793,14.3248379 C162.79,14.5248379 162.633,14.6868379 162.441,14.6868379 L160.889,14.6868379 C160.697,14.6868379 160.539,14.5258379 160.537,14.3248379 L160.537,12.7048379 Z M160.537,16.0658379 C160.537,15.8638379 160.695,15.6998379 160.889,15.6998379 L162.441,15.6998379 C162.635,15.6998379 162.793,15.8638379 162.793,16.0658379 L162.793,17.6818379 C162.793,17.8838379 162.635,18.0478379 162.441,18.0478379 L160.889,18.0478379 C160.695,18.0478379 160.537,17.8838379 160.537,17.6818379 L160.537,16.0658379 Z M160.537,19.4278379 C160.537,19.2248379 160.695,19.0608379 160.889,19.0608379 L162.441,19.0608379 C162.635,19.0608379 162.793,19.2248379 162.793,19.4278379 L162.793,21.0578379 C162.793,21.2598379 162.635,21.4238379 162.441,21.4238379 L160.889,21.4238379 C160.695,21.4238379 160.537,21.2598379 160.537,21.0578379 L160.537,19.4278379 Z M160.537,22.7838379 C160.54,22.5838379 160.697,22.4228379 160.889,22.4228379 L162.441,22.4228379 C162.633,22.4228379 162.791,22.5828379 162.793,22.7828379 L162.793,24.4038379 C162.793,24.6058379 162.635,24.7698379 162.441,24.7698379 L160.889,24.7698379 C160.695,24.7698379 160.537,24.6058379 160.537,24.4038379 L160.537,22.7838379 L160.537,22.7838379 Z M160.537,26.1448379 C160.537,25.9428379 160.695,25.7788379 160.889,25.7788379 L162.441,25.7788379 C162.635,25.7788379 162.793,25.9428379 162.793,26.1448379 L162.793,27.7648379 C162.79,27.9648379 162.633,28.1268379 162.441,28.1268379 L160.889,28.1268379 C160.697,28.1268379 160.539,27.9658379 160.537,27.7648379 L160.537,26.1448379 Z M160.537,29.5058379 C160.537,29.3038379 160.695,29.1398379 160.889,29.1398379 L162.441,29.1398379 C162.635,29.1398379 162.793,29.3038379 162.793,29.5058379 L162.793,31.1218379 C162.793,31.3238379 162.635,31.4878379 162.441,31.4878379 L160.889,31.4878379 C160.695,31.4878379 160.537,31.3238379 160.537,31.1218379 L160.537,29.5058379 Z M160.537,32.8668379 C160.537,32.6648379 160.695,32.5008379 160.889,32.5008379 L162.441,32.5008379 C162.635,32.5008379 162.793,32.6648379 162.793,32.8668379 L162.793,34.4828379 C162.793,34.6848379 162.635,34.8488379 162.441,34.8488379 L160.889,34.8488379 C160.695,34.8488379 160.537,34.6848379 160.537,34.4828379 L160.537,32.8668379 Z M157.55,9.34383785 C157.55,9.14383785 157.705,8.98283785 157.897,8.98283785 L159.454,8.98283785 C159.646,8.98283785 159.804,9.14283785 159.806,9.34283785 L159.806,10.9638379 C159.806,11.1658379 159.648,11.3298379 159.454,11.3298379 L157.897,11.3298379 C157.705,11.3278379 157.55,11.1638379 157.55,10.9638379 L157.55,9.34383785 L157.55,9.34383785 Z M157.55,12.7048379 C157.55,12.5048379 157.705,12.3408379 157.897,12.3388379 L159.454,12.3388379 C159.648,12.3388379 159.806,12.5028379 159.806,12.7048379 L159.806,14.3248379 C159.803,14.5248379 159.646,14.6868379 159.454,14.6868379 L157.897,14.6868379 C157.705,14.6868379 157.55,14.5248379 157.55,14.3248379 L157.55,12.7048379 L157.55,12.7048379 Z M157.55,16.0658379 C157.55,15.8658379 157.705,15.7028379 157.897,15.6998379 L159.454,15.6998379 C159.648,15.6998379 159.806,15.8638379 159.806,16.0658379 L159.806,17.6818379 C159.806,17.8838379 159.648,18.0478379 159.454,18.0478379 L157.897,18.0478379 C157.705,18.0448379 157.55,17.8818379 157.55,17.6818379 L157.55,16.0658379 Z M157.54998,19.4278379 C157.549,19.3308379 157.585,19.2378379 157.65,19.1678379 C157.715,19.0998379 157.804,19.0608379 157.897,19.0608379 L159.454,19.0608379 C159.648,19.0608379 159.806,19.2248379 159.806,19.4278379 L159.806,21.0578379 C159.806,21.2598379 159.648,21.4238379 159.454,21.4238379 L157.897,21.4238379 C157.705,21.4218379 157.54998,21.2578379 157.54998,21.0578379 L157.54998,19.4278379 Z M157.55,22.7838379 C157.55,22.5838379 157.705,22.4228379 157.897,22.4228379 L159.454,22.4228379 C159.646,22.4228379 159.804,22.5828379 159.806,22.7828379 L159.806,24.4038379 C159.806,24.6058379 159.648,24.7698379 159.454,24.7698379 L157.897,24.7698379 C157.705,24.7678379 157.55,24.6038379 157.55,24.4038379 L157.55,22.7838379 L157.55,22.7838379 Z M157.55,26.1448379 C157.55,25.9448379 157.705,25.7808379 157.897,25.7788379 L159.454,25.7788379 C159.648,25.7788379 159.806,25.9428379 159.806,26.1448379 L159.806,27.7648379 C159.803,27.9648379 159.646,28.1268379 159.454,28.1268379 L157.897,28.1268379 C157.705,28.1268379 157.55,27.9648379 157.55,27.7648379 L157.55,26.1448379 Z M157.54998,29.5058379 C157.54998,29.3058379 157.705,29.1428379 157.897,29.1398379 L159.454,29.1398379 C159.648,29.1398379 159.806,29.3038379 159.806,29.5058379 L159.806,31.1218379 C159.806,31.3238379 159.648,31.4878379 159.454,31.4878379 L157.897,31.4878379 C157.804,31.4878379 157.715,31.4488379 157.65,31.3798379 C157.585,31.3108379 157.549,31.2178379 157.54998,31.1218379 L157.54998,29.5058379 Z M157.54998,32.8668379 C157.549,32.7708379 157.585,32.6768379 157.65,32.6088379 C157.715,32.5388379 157.804,32.5008379 157.897,32.5008379 L159.454,32.5008379 C159.648,32.5008379 159.806,32.6648379 159.806,32.8668379 L159.806,34.4828379 C159.806,34.6848379 159.648,34.8488379 159.454,34.8488379 L157.897,34.8488379 C157.705,34.8468379 157.54998,34.6828379 157.54998,34.4828379 L157.54998,32.8668379 Z M154.557,9.34383785 C154.56,9.14383785 154.717,8.98283785 154.909,8.98283785 L156.466,8.98283785 C156.657,8.98283785 156.813,9.14383785 156.813,9.34283785 L156.813,10.9638379 C156.813,11.1638379 156.658,11.3278379 156.466,11.3298379 L154.909,11.3298379 C154.715,11.3298379 154.557,11.1658379 154.557,10.9638379 L154.557,9.34383785 Z M154.557,12.7048379 C154.557,12.5028379 154.715,12.3388379 154.909,12.3388379 L156.466,12.3388379 C156.658,12.3408379 156.813,12.5048379 156.813,12.7048379 L156.813,14.3248379 C156.813,14.5248379 156.657,14.6868379 156.466,14.6868379 L154.909,14.6868379 C154.717,14.6868379 154.559,14.5258379 154.557,14.3248379 L154.557,12.7048379 Z M154.557,16.0658379 C154.557,15.8638379 154.715,15.6998379 154.909,15.6998379 L156.466,15.6998379 C156.658,15.7028379 156.813,15.8658379 156.813,16.0658379 L156.813,17.6818379 C156.813,17.8818379 156.658,18.0448379 156.466,18.0478379 L154.909,18.0478379 C154.715,18.0478379 154.557,17.8838379 154.557,17.6818379 L154.557,16.0658379 Z M154.557,19.4278379 C154.557,19.2248379 154.715,19.0608379 154.909,19.0608379 L156.466,19.0608379 C156.559,19.0608379 156.647,19.0998379 156.713,19.1688379 C156.778,19.2378379 156.814,19.3308379 156.81302,19.4278379 L156.81302,21.0578379 C156.81302,21.2578379 156.658,21.4218379 156.466,21.4238379 L154.909,21.4238379 C154.715,21.4238379 154.557,21.2598379 154.557,21.0578379 L154.557,19.4278379 Z M154.557,22.7838379 C154.56,22.5838379 154.717,22.4228379 154.909,22.4228379 L156.466,22.4228379 C156.657,22.4228379 156.813,22.5838379 156.813,22.7828379 L156.813,24.4038379 C156.813,24.6038379 156.658,24.7678379 156.466,24.7698379 L154.909,24.7698379 C154.715,24.7698379 154.557,24.6058379 154.557,24.4038379 L154.557,22.7838379 L154.557,22.7838379 Z M154.557,26.1448379 C154.557,25.9428379 154.715,25.7788379 154.909,25.7788379 L156.466,25.7788379 C156.658,25.7808379 156.813,25.9448379 156.813,26.1448379 L156.813,27.7648379 C156.813,27.9648379 156.657,28.1268379 156.466,28.1268379 L154.909,28.1268379 C154.717,28.1268379 154.559,27.9658379 154.557,27.7648379 L154.557,26.1448379 Z M154.557,29.5058379 C154.557,29.3038379 154.715,29.1398379 154.909,29.1398379 L156.466,29.1398379 C156.658,29.1428379 156.81302,29.3058379 156.81302,29.5058379 L156.81302,31.1218379 C156.814,31.2178379 156.778,31.3118379 156.713,31.3798379 C156.647,31.4498379 156.559,31.4878379 156.466,31.4878379 L154.909,31.4878379 C154.715,31.4878379 154.557,31.3238379 154.557,31.1218379 L154.557,29.5058379 Z M154.557,32.8668379 C154.557,32.6648379 154.715,32.5008379 154.909,32.5008379 L156.466,32.5008379 C156.559,32.5008379 156.647,32.5398379 156.713,32.6088379 C156.778,32.6778379 156.814,32.7708379 156.81302,32.8668379 L156.81302,34.4828379 C156.81302,34.6828379 156.658,34.8468379 156.466,34.8488379 L154.909,34.8488379 C154.715,34.8488379 154.557,34.6848379 154.557,34.4828379 L154.557,32.8668379 Z M163.892,39.0868379 C163.892,38.6868379 163.767,38.6228379 163.412,38.6228379 L153.942,38.6228379 C153.582,38.6228379 153.462,38.6968379 153.462,39.1158379 C153.481,41.5838379 153.481,44.0518379 153.462,46.5188379 C153.462,46.9338379 153.596,46.9788379 153.942,46.9728379 L163.422,46.9728379 C163.767,46.9728379 163.902,46.9188379 163.902,46.5138379 C163.868,44.0268379 163.872,41.5588379 163.892,39.0868379 Z M156.914,41.2428379 L156.914,45.4628379 L154.8,45.4628379 L154.8,41.1998379 C154.8,40.5968379 155.275,40.1098379 155.86,40.1098379 C156.446,40.1098379 156.92,40.5968379 156.92,41.1998379 C156.92,41.8028379 156.915,41.2298379 156.915,41.2438379 L156.914,41.2428379 Z M159.734,41.2428379 L159.734,45.4628379 L157.619,45.4628379 L157.619,41.1998379 C157.619,40.5968379 158.093,40.1098379 158.679,40.1098379 C159.264,40.1098379 159.739,40.5968379 159.739,41.1998379 C159.739,41.8028379 159.734,41.2298379 159.734,41.2438379 L159.734,41.2428379 Z M162.554,41.2428379 L162.554,45.4628379 L160.439,45.4628379 L160.439,41.1998379 C160.439,40.5968379 160.913,40.1098379 161.499,40.1098379 C162.084,40.1098379 162.559,40.5968379 162.559,41.1998379 C162.559,41.8028379 162.554,41.2298379 162.554,41.2438379 L162.554,41.2428379 Z M153.686,0.0158378518 C153.632,0.0208378518 153.576,0.0208378518 153.523,0.0158378518 C153.473,0.128837852 153.453,0.253837852 153.465,0.378837852 C153.494,1.97883785 153.465,3.57883785 153.465,5.17883785 C153.465,6.24883785 153.465,6.22883785 154.487,6.24283785 C154.847,6.24283785 154.913,6.11883785 154.909,5.77583785 L154.909,2.25183785 C154.909,1.62183785 155.163,1.28783785 155.619,1.28283785 C156.074,1.27783785 156.342,1.63583785 156.342,2.23683785 C156.342,3.42983785 156.366,4.62283785 156.342,5.81583785 C156.342,6.21283785 156.492,6.26283785 156.822,6.23783785 C157.152,6.21283785 157.359,6.29783785 157.35,5.82083785 C157.316,4.52883785 157.35,3.23083785 157.35,1.93383785 C157.326,1.56383785 157.45,1.19883785 157.695,0.926837852 C157.939,0.654837852 158.281,0.499837852 158.64,0.496837852 C159.008,0.501837852 159.359,0.664837852 159.607,0.947837852 C159.856,1.23083785 159.979,1.60783785 159.949,1.98783785 C159.949,3.26583785 159.973,4.54783785 159.949,5.82583785 C159.949,6.27783785 160.155,6.25283785 160.452,6.25783785 C160.75,6.26283785 160.956,6.25783785 160.932,5.81083785 C160.898,4.60283785 160.932,3.39083785 160.932,2.18283785 C160.932,1.65083785 161.205,1.31783785 161.622,1.30283785 C162.04,1.28783785 162.332,1.61083785 162.337,2.19783785 L162.337,5.10983785 C162.337,6.27283785 162.337,6.25783785 163.483,6.26283785 C163.795,6.26283785 163.9,6.18883785 163.9,5.84083785 C163.881,4.00083785 163.881,2.16083785 163.9,0.318837852 C163.905,0.223837852 163.89,0.128837852 163.857,0.0408378518 L163.469,0.0408378518 C160.179,0.000837851757 156.932,-0.0141621482 153.686,0.0158378518 L153.686,0.0158378518 Z" id="Shape"/>
            <path d="M153.863,51.1488379 L163.468,51.1488379 C163.824,51.1488379 163.91,51.0398379 163.9,50.6888379 L163.9,47.3788379 C163.9,47.0678379 163.814,46.9738379 163.511,46.9738379 L153.873,46.9738379 C153.537,46.9738379 153.46,47.0878379 153.465,47.4138379 C153.465,48.5188379 153.489,49.6178379 153.465,50.7228379 C153.441,51.0698379 153.546,51.1528379 153.863,51.1488379 L153.863,51.1488379 Z M163.441,36.5348379 L153.914,36.5348379 C153.587,36.5348379 153.466,36.5978379 153.462,37.0348379 C153.457,37.4708379 153.587,37.6078379 153.942,37.5738379 L163.442,37.5738379 C163.779,37.5738379 163.924,37.4938379 163.9,37.0638379 C163.875,36.6328379 163.798,36.5298379 163.442,36.5348379 L163.441,36.5348379 Z M153.92,7.30683785 L163.44,7.30683785 C163.778,7.30683785 163.923,7.22683785 163.899,6.79383785 C163.874,6.36083785 163.821,6.25783785 163.464,6.26383785 L153.915,6.26383785 C153.587,6.26383785 153.467,6.32683785 153.462,6.76383785 C153.457,7.20283785 153.563,7.31283785 153.92,7.30683785 Z" id="Shape"/>
        </g>
    </g>
</svg>